<?xml version="1.0" encoding="UTF-8"?>
<svg xmlns="http://www.w3.org/2000/svg" viewBox="0 0 240 240" width="240" height="240" role="img" aria-label="Kit the fox, happy">
  <g transform="translate(120, 120)">
    <path d="M-68,-40 L-95,-110 L-38,-58 Z" fill="#E87A3D"/>
    <path d="M-68,-48 L-85,-90 L-46,-63 Z" fill="#F4B8A8"/>
    <path d="M68,-40 L95,-110 L38,-58 Z" fill="#E87A3D"/>
    <path d="M68,-48 L85,-90 L46,-63 Z" fill="#F4B8A8"/>
    <ellipse cx="0" cy="0" rx="85" ry="78" fill="#E87A3D"/>
    <ellipse cx="-62" cy="32" rx="22" ry="28" fill="#FFF5E6"/>
    <ellipse cx="62" cy="32" rx="22" ry="28" fill="#FFF5E6"/>
    <ellipse cx="0" cy="38" rx="52" ry="38" fill="#FFF5E6"/>
    <ellipse cx="-28" cy="-5" rx="8.5" ry="10.5" fill="#1A1A1A"/>
    <circle cx="-25" cy="-9" r="3" fill="#FFFFFF"/>
    <ellipse cx="28" cy="-5" rx="8.5" ry="10.5" fill="#1A1A1A"/>
    <circle cx="31" cy="-9" r="3" fill="#FFFFFF"/>
    <ellipse cx="0" cy="27" rx="9" ry="6.5" fill="#1A1A1A"/>
    <path d="M0,33 L0,44" stroke="#1A1A1A" stroke-width="2" stroke-linecap="round" fill="none"/>
    <path d="M-14,47 Q0,60 14,47" stroke="#1A1A1A" stroke-width="2.5" stroke-linecap="round" fill="none"/>
  </g>
</svg>
